<mxfile host="app.diagrams.net" agent="Mozilla/5.0 (Windows NT 10.0; Win64; x64; rv:135.0) Gecko/20100101 Firefox/135.0" version="26.0.16">
  <diagram id="FOrBWjSAFHc-2LiLr-zX" name="Page-1">
    <mxGraphModel dx="1461" dy="1980" grid="1" gridSize="10" guides="1" tooltips="1" connect="1" arrows="1" fold="1" page="1" pageScale="1" pageWidth="827" pageHeight="1169" math="0" shadow="0">
      <root>
        <mxCell id="0" />
        <mxCell id="1" parent="0" />
        <mxCell id="Ywec6I_Pi-oKpESn6JxR-15" value="" style="rounded=1;whiteSpace=wrap;html=1;fillColor=#ffe6cc;strokeColor=#d79b00;" parent="1" vertex="1">
          <mxGeometry x="20" y="50" width="470" height="510" as="geometry" />
        </mxCell>
        <mxCell id="Ywec6I_Pi-oKpESn6JxR-16" value="PeayPark" style="rounded=1;whiteSpace=wrap;html=1;fillColor=#ffe6cc;strokeColor=#d79b00;" parent="1" vertex="1">
          <mxGeometry x="210" y="-10" width="120" height="60" as="geometry" />
        </mxCell>
        <mxCell id="Ywec6I_Pi-oKpESn6JxR-17" value="" style="rounded=1;whiteSpace=wrap;html=1;fillColor=#d5e8d4;strokeColor=#82b366;" parent="1" vertex="1">
          <mxGeometry x="50" y="110" width="410" height="410" as="geometry" />
        </mxCell>
        <mxCell id="Ywec6I_Pi-oKpESn6JxR-18" value="React Native(Front End)" style="rounded=1;whiteSpace=wrap;html=1;fillColor=#d5e8d4;strokeColor=#82b366;glass=0;" parent="1" vertex="1">
          <mxGeometry x="210" y="60" width="120" height="50" as="geometry" />
        </mxCell>
        <mxCell id="Ywec6I_Pi-oKpESn6JxR-19" value="" style="rounded=1;whiteSpace=wrap;html=1;fillColor=#e1d5e7;strokeColor=#9673a6;" parent="1" vertex="1">
          <mxGeometry x="90" y="150" width="330" height="320" as="geometry" />
        </mxCell>
        <mxCell id="Ywec6I_Pi-oKpESn6JxR-20" value="Componet" style="rounded=1;whiteSpace=wrap;html=1;fillColor=#e1d5e7;strokeColor=#9673a6;" parent="1" vertex="1">
          <mxGeometry x="210" y="120" width="120" height="40" as="geometry" />
        </mxCell>
        <mxCell id="Ywec6I_Pi-oKpESn6JxR-21" value="HTML" style="rounded=0;whiteSpace=wrap;html=1;fillColor=#b1ddf0;strokeColor=#10739e;" parent="1" vertex="1">
          <mxGeometry x="120" y="190" width="120" height="60" as="geometry" />
        </mxCell>
        <mxCell id="Ywec6I_Pi-oKpESn6JxR-22" value="CSS" style="rounded=0;whiteSpace=wrap;html=1;fillColor=#b1ddf0;strokeColor=#10739e;" parent="1" vertex="1">
          <mxGeometry x="280" y="190" width="120" height="60" as="geometry" />
        </mxCell>
        <mxCell id="Ywec6I_Pi-oKpESn6JxR-23" value="JavaScript" style="rounded=0;whiteSpace=wrap;html=1;fillColor=#b1ddf0;strokeColor=#10739e;" parent="1" vertex="1">
          <mxGeometry x="210" y="295" width="120" height="60" as="geometry" />
        </mxCell>
        <mxCell id="Ywec6I_Pi-oKpESn6JxR-24" value="" style="endArrow=classic;html=1;rounded=0;exitX=0.011;exitY=0.388;exitDx=0;exitDy=0;exitPerimeter=0;" parent="1" source="Ywec6I_Pi-oKpESn6JxR-25" target="Ywec6I_Pi-oKpESn6JxR-15" edge="1">
          <mxGeometry width="50" height="50" relative="1" as="geometry">
            <mxPoint x="540" y="330" as="sourcePoint" />
            <mxPoint x="490" y="270" as="targetPoint" />
          </mxGeometry>
        </mxCell>
        <mxCell id="Ywec6I_Pi-oKpESn6JxR-25" value="" style="shape=cylinder3;whiteSpace=wrap;html=1;boundedLbl=1;backgroundOutline=1;size=15;fillColor=#b0e3e6;strokeColor=#0e8088;" parent="1" vertex="1">
          <mxGeometry x="620" y="80" width="190" height="460" as="geometry" />
        </mxCell>
        <mxCell id="Ywec6I_Pi-oKpESn6JxR-26" value="SupaBase Database" style="rounded=0;whiteSpace=wrap;html=1;fillColor=#bac8d3;strokeColor=#23445d;" parent="1" vertex="1">
          <mxGeometry x="655" y="150" width="120" height="60" as="geometry" />
        </mxCell>
        <mxCell id="Ywec6I_Pi-oKpESn6JxR-27" value="SupaBase Auth" style="rounded=0;whiteSpace=wrap;html=1;fillColor=#bac8d3;strokeColor=#23445d;" parent="1" vertex="1">
          <mxGeometry x="660" y="300" width="120" height="60" as="geometry" />
        </mxCell>
        <mxCell id="Ywec6I_Pi-oKpESn6JxR-29" value="SupaBase" style="rounded=1;whiteSpace=wrap;html=1;fillColor=#b0e3e6;strokeColor=#0e8088;" parent="1" vertex="1">
          <mxGeometry x="655" y="20" width="125" height="70" as="geometry" />
        </mxCell>
        <mxCell id="Ywec6I_Pi-oKpESn6JxR-30" value="" style="endArrow=classic;html=1;rounded=0;exitX=1.001;exitY=0.577;exitDx=0;exitDy=0;exitPerimeter=0;entryX=0.011;entryY=0.57;entryDx=0;entryDy=0;entryPerimeter=0;" parent="1" source="Ywec6I_Pi-oKpESn6JxR-15" target="Ywec6I_Pi-oKpESn6JxR-25" edge="1">
          <mxGeometry width="50" height="50" relative="1" as="geometry">
            <mxPoint x="510" y="330" as="sourcePoint" />
            <mxPoint x="560" y="280" as="targetPoint" />
          </mxGeometry>
        </mxCell>
        <mxCell id="Ywec6I_Pi-oKpESn6JxR-31" value="Request" style="text;html=1;align=center;verticalAlign=middle;whiteSpace=wrap;rounded=0;" parent="1" vertex="1">
          <mxGeometry x="530" y="310" width="60" height="30" as="geometry" />
        </mxCell>
        <mxCell id="Ywec6I_Pi-oKpESn6JxR-32" value="Response" style="text;html=1;align=center;verticalAlign=middle;whiteSpace=wrap;rounded=0;" parent="1" vertex="1">
          <mxGeometry x="530" y="230" width="60" height="30" as="geometry" />
        </mxCell>
        <mxCell id="Ywec6I_Pi-oKpESn6JxR-33" style="edgeStyle=orthogonalEdgeStyle;rounded=0;orthogonalLoop=1;jettySize=auto;html=1;exitX=0.5;exitY=1;exitDx=0;exitDy=0;" parent="1" source="Ywec6I_Pi-oKpESn6JxR-31" target="Ywec6I_Pi-oKpESn6JxR-31" edge="1">
          <mxGeometry relative="1" as="geometry" />
        </mxCell>
      </root>
    </mxGraphModel>
  </diagram>
</mxfile>
